<mxfile host="app.diagrams.net" modified="2022-04-08T14:04:59.732Z" agent="5.0 (X11; Linux x86_64) AppleWebKit/537.36 (KHTML, like Gecko) Chrome/102.0.4972.0 Safari/537.36" etag="6QpBMX71Gqe_jSVFsWup" version="17.1.3" type="github">
  <diagram id="txbRaQkt2ZC2WVLhmi1R" name="Page-1">
    <mxGraphModel dx="2249" dy="651" grid="1" gridSize="10" guides="1" tooltips="1" connect="1" arrows="1" fold="1" page="1" pageScale="1" pageWidth="827" pageHeight="1169" background="#ffffff" math="0" shadow="0">
      <root>
        <mxCell id="0" />
        <mxCell id="1" parent="0" />
        <mxCell id="8NwROwxm1LsMAn0bTt06-3" value="customer&lt;br&gt;" style="shape=umlLifeline;participant=umlActor;perimeter=lifelinePerimeter;whiteSpace=wrap;html=1;container=1;collapsible=0;recursiveResize=0;verticalAlign=top;spacingTop=36;outlineConnect=0;" vertex="1" parent="1">
          <mxGeometry x="120" y="40" width="20" height="790" as="geometry" />
        </mxCell>
        <mxCell id="8NwROwxm1LsMAn0bTt06-8" value="" style="html=1;points=[];perimeter=orthogonalPerimeter;" vertex="1" parent="8NwROwxm1LsMAn0bTt06-3">
          <mxGeometry x="5" y="70" width="10" height="80" as="geometry" />
        </mxCell>
        <mxCell id="8NwROwxm1LsMAn0bTt06-4" value="front" style="shape=umlLifeline;perimeter=lifelinePerimeter;whiteSpace=wrap;html=1;container=1;collapsible=0;recursiveResize=0;outlineConnect=0;" vertex="1" parent="1">
          <mxGeometry x="240" y="40" width="110" height="850" as="geometry" />
        </mxCell>
        <mxCell id="8NwROwxm1LsMAn0bTt06-11" value="" style="html=1;points=[];perimeter=orthogonalPerimeter;" vertex="1" parent="8NwROwxm1LsMAn0bTt06-4">
          <mxGeometry x="45" y="70" width="10" height="80" as="geometry" />
        </mxCell>
        <mxCell id="8NwROwxm1LsMAn0bTt06-6" value="back" style="shape=umlLifeline;perimeter=lifelinePerimeter;whiteSpace=wrap;html=1;container=1;collapsible=0;recursiveResize=0;outlineConnect=0;" vertex="1" parent="1">
          <mxGeometry x="420" y="40" width="100" height="730" as="geometry" />
        </mxCell>
        <mxCell id="8NwROwxm1LsMAn0bTt06-27" value="" style="html=1;points=[];perimeter=orthogonalPerimeter;" vertex="1" parent="8NwROwxm1LsMAn0bTt06-6">
          <mxGeometry x="45" y="395" width="10" height="90" as="geometry" />
        </mxCell>
        <mxCell id="8NwROwxm1LsMAn0bTt06-7" value="BDD" style="shape=umlLifeline;perimeter=lifelinePerimeter;whiteSpace=wrap;html=1;container=1;collapsible=0;recursiveResize=0;outlineConnect=0;" vertex="1" parent="1">
          <mxGeometry x="600" y="40" width="100" height="710" as="geometry" />
        </mxCell>
        <mxCell id="8NwROwxm1LsMAn0bTt06-9" value="delete account" style="html=1;verticalAlign=bottom;endArrow=block;rounded=0;exitX=1.3;exitY=0.113;exitDx=0;exitDy=0;exitPerimeter=0;" edge="1" target="8NwROwxm1LsMAn0bTt06-4" parent="1" source="8NwROwxm1LsMAn0bTt06-8">
          <mxGeometry relative="1" as="geometry">
            <mxPoint x="55" y="110" as="sourcePoint" />
          </mxGeometry>
        </mxCell>
        <mxCell id="8NwROwxm1LsMAn0bTt06-10" value="ask to confirm&amp;nbsp;" style="html=1;verticalAlign=bottom;endArrow=open;dashed=1;endSize=8;rounded=0;" edge="1" parent="1">
          <mxGeometry relative="1" as="geometry">
            <mxPoint x="140" y="160" as="targetPoint" />
            <mxPoint x="280" y="160" as="sourcePoint" />
          </mxGeometry>
        </mxCell>
        <mxCell id="8NwROwxm1LsMAn0bTt06-12" value="alt" style="shape=umlFrame;tabWidth=110;tabHeight=30;tabPosition=left;html=1;boundedLbl=1;labelInHeader=1;width=140;height=30;fillColor=#60a917;strokeColor=#2D7600;fontColor=#ffffff;container=0;" vertex="1" parent="1">
          <mxGeometry x="-70" y="250" width="430" height="160" as="geometry" />
        </mxCell>
        <mxCell id="8NwROwxm1LsMAn0bTt06-13" value="if confirm : false" style="text" vertex="1" parent="1">
          <mxGeometry x="-70" y="251.82" width="100" height="20" as="geometry">
            <mxPoint x="20" y="40" as="offset" />
          </mxGeometry>
        </mxCell>
        <mxCell id="8NwROwxm1LsMAn0bTt06-14" value="if confirm : false" style="line;strokeWidth=1;dashed=1;labelPosition=center;verticalLabelPosition=bottom;align=left;verticalAlign=top;spacingLeft=20;spacingTop=15;" vertex="1" parent="1">
          <mxGeometry x="-70" y="327.77733384262797" width="430" height="4.449197860962566" as="geometry" />
        </mxCell>
        <mxCell id="8NwROwxm1LsMAn0bTt06-15" value="" style="html=1;points=[];perimeter=orthogonalPerimeter;" vertex="1" parent="1">
          <mxGeometry x="125" y="271.8163483575248" width="10" height="29.946524064171115" as="geometry" />
        </mxCell>
        <mxCell id="8NwROwxm1LsMAn0bTt06-16" value="" style="html=1;points=[];perimeter=orthogonalPerimeter;" vertex="1" parent="1">
          <mxGeometry x="125" y="361.29" width="10" height="28.71" as="geometry" />
        </mxCell>
        <mxCell id="8NwROwxm1LsMAn0bTt06-17" value="" style="html=1;points=[];perimeter=orthogonalPerimeter;" vertex="1" parent="1">
          <mxGeometry x="285" y="271.8181818181818" width="10" height="30.129870129870124" as="geometry" />
        </mxCell>
        <mxCell id="8NwROwxm1LsMAn0bTt06-20" value="click confirm" style="html=1;verticalAlign=bottom;endArrow=block;rounded=0;" edge="1" parent="1" target="8NwROwxm1LsMAn0bTt06-17">
          <mxGeometry width="80" relative="1" as="geometry">
            <mxPoint x="130" y="281.16883116883116" as="sourcePoint" />
            <mxPoint x="210" y="281.16883116883116" as="targetPoint" />
          </mxGeometry>
        </mxCell>
        <mxCell id="8NwROwxm1LsMAn0bTt06-21" value="" style="html=1;points=[];perimeter=orthogonalPerimeter;" vertex="1" parent="1">
          <mxGeometry x="285" y="354.31" width="10" height="35.69" as="geometry" />
        </mxCell>
        <mxCell id="8NwROwxm1LsMAn0bTt06-22" value="no confirm or close&amp;nbsp;&lt;br&gt;window" style="html=1;verticalAlign=bottom;endArrow=block;rounded=0;" edge="1" parent="1">
          <mxGeometry x="-0.28" y="7" width="80" relative="1" as="geometry">
            <mxPoint x="136" y="372.33142857142855" as="sourcePoint" />
            <mxPoint x="286" y="372.33142857142855" as="targetPoint" />
            <mxPoint as="offset" />
          </mxGeometry>
        </mxCell>
        <mxCell id="8NwROwxm1LsMAn0bTt06-23" value="send request delete" style="html=1;verticalAlign=bottom;endArrow=block;rounded=0;" edge="1" parent="1" target="8NwROwxm1LsMAn0bTt06-24">
          <mxGeometry width="80" relative="1" as="geometry">
            <mxPoint x="296" y="380" as="sourcePoint" />
            <mxPoint x="376" y="380" as="targetPoint" />
          </mxGeometry>
        </mxCell>
        <mxCell id="8NwROwxm1LsMAn0bTt06-24" value="" style="html=1;points=[];perimeter=orthogonalPerimeter;" vertex="1" parent="1">
          <mxGeometry x="465" y="370" width="10" height="30" as="geometry" />
        </mxCell>
        <mxCell id="8NwROwxm1LsMAn0bTt06-28" value="JWT verification&amp;nbsp;" style="edgeStyle=orthogonalEdgeStyle;html=1;align=left;spacingLeft=2;endArrow=block;rounded=0;entryX=1;entryY=0;" edge="1" target="8NwROwxm1LsMAn0bTt06-27" parent="1">
          <mxGeometry relative="1" as="geometry">
            <mxPoint x="480" y="390" as="sourcePoint" />
            <Array as="points">
              <mxPoint x="495" y="390" />
              <mxPoint x="495" y="440" />
            </Array>
          </mxGeometry>
        </mxCell>
        <mxCell id="8NwROwxm1LsMAn0bTt06-31" value="if JWT valid" style="line;strokeWidth=1;dashed=1;labelPosition=center;verticalLabelPosition=bottom;align=left;verticalAlign=top;spacingLeft=20;spacingTop=15;" vertex="1" parent="1">
          <mxGeometry x="-50" y="490" width="770.0000000000001" height="10" as="geometry" />
        </mxCell>
        <mxCell id="8NwROwxm1LsMAn0bTt06-35" value="if JWT no valid" style="text;html=1;resizable=0;autosize=1;align=center;verticalAlign=middle;points=[];fillColor=none;strokeColor=none;rounded=0;" vertex="1" parent="1">
          <mxGeometry x="-30" y="470" width="90" height="20" as="geometry" />
        </mxCell>
        <mxCell id="8NwROwxm1LsMAn0bTt06-37" value="" style="html=1;points=[];perimeter=orthogonalPerimeter;" vertex="1" parent="1">
          <mxGeometry x="285" y="457" width="10" height="30" as="geometry" />
        </mxCell>
        <mxCell id="8NwROwxm1LsMAn0bTt06-38" value="" style="html=1;points=[];perimeter=orthogonalPerimeter;" vertex="1" parent="1">
          <mxGeometry x="125" y="469" width="10" height="14" as="geometry" />
        </mxCell>
        <mxCell id="8NwROwxm1LsMAn0bTt06-39" value="error&amp;nbsp;" style="html=1;verticalAlign=bottom;endArrow=open;dashed=1;endSize=8;rounded=0;entryX=1.4;entryY=0.1;entryDx=0;entryDy=0;entryPerimeter=0;" edge="1" parent="1" target="8NwROwxm1LsMAn0bTt06-37">
          <mxGeometry relative="1" as="geometry">
            <mxPoint x="460" y="460" as="sourcePoint" />
            <mxPoint x="380" y="460" as="targetPoint" />
          </mxGeometry>
        </mxCell>
        <mxCell id="8NwROwxm1LsMAn0bTt06-40" value="return error" style="html=1;verticalAlign=bottom;endArrow=open;dashed=1;endSize=8;rounded=0;entryX=1.1;entryY=0.233;entryDx=0;entryDy=0;entryPerimeter=0;" edge="1" parent="1" target="8NwROwxm1LsMAn0bTt06-38">
          <mxGeometry relative="1" as="geometry">
            <mxPoint x="280" y="472" as="sourcePoint" />
            <mxPoint x="200" y="480" as="targetPoint" />
          </mxGeometry>
        </mxCell>
        <mxCell id="8NwROwxm1LsMAn0bTt06-44" value="" style="html=1;points=[];perimeter=orthogonalPerimeter;" vertex="1" parent="1">
          <mxGeometry x="645" y="520" width="10" height="230" as="geometry" />
        </mxCell>
        <mxCell id="8NwROwxm1LsMAn0bTt06-45" value="delete account&amp;nbsp;" style="html=1;verticalAlign=bottom;endArrow=block;rounded=0;" edge="1" parent="1" target="8NwROwxm1LsMAn0bTt06-44">
          <mxGeometry width="80" relative="1" as="geometry">
            <mxPoint x="470" y="520" as="sourcePoint" />
            <mxPoint x="550" y="520" as="targetPoint" />
          </mxGeometry>
        </mxCell>
        <mxCell id="8NwROwxm1LsMAn0bTt06-46" value="alt" style="shape=umlFrame;tabWidth=110;tabHeight=30;tabPosition=left;html=1;boundedLbl=1;labelInHeader=1;width=140;height=30;fillColor=#76608a;fontColor=#ffffff;strokeColor=#432D57;" vertex="1" parent="1">
          <mxGeometry x="-20" y="572" width="740" height="310" as="geometry" />
        </mxCell>
        <mxCell id="8NwROwxm1LsMAn0bTt06-47" value="if error BBD" style="text" vertex="1" parent="8NwROwxm1LsMAn0bTt06-46">
          <mxGeometry width="100" height="20" relative="1" as="geometry">
            <mxPoint x="20" y="40" as="offset" />
          </mxGeometry>
        </mxCell>
        <mxCell id="8NwROwxm1LsMAn0bTt06-48" value="If delete ok" style="line;strokeWidth=1;dashed=1;labelPosition=center;verticalLabelPosition=bottom;align=left;verticalAlign=top;spacingLeft=20;spacingTop=15;" vertex="1" parent="8NwROwxm1LsMAn0bTt06-46">
          <mxGeometry y="125" width="740.0000000000001" height="10" as="geometry" />
        </mxCell>
        <mxCell id="8NwROwxm1LsMAn0bTt06-50" value="" style="html=1;points=[];perimeter=orthogonalPerimeter;" vertex="1" parent="8NwROwxm1LsMAn0bTt06-46">
          <mxGeometry x="485" y="35" width="10" height="42" as="geometry" />
        </mxCell>
        <mxCell id="8NwROwxm1LsMAn0bTt06-51" value="" style="html=1;points=[];perimeter=orthogonalPerimeter;" vertex="1" parent="8NwROwxm1LsMAn0bTt06-46">
          <mxGeometry x="310" y="65" width="10" height="35" as="geometry" />
        </mxCell>
        <mxCell id="8NwROwxm1LsMAn0bTt06-52" value="" style="html=1;points=[];perimeter=orthogonalPerimeter;" vertex="1" parent="8NwROwxm1LsMAn0bTt06-46">
          <mxGeometry x="125" y="78" width="10" height="22" as="geometry" />
        </mxCell>
        <mxCell id="8NwROwxm1LsMAn0bTt06-53" value="error" style="html=1;verticalAlign=bottom;endArrow=open;dashed=1;endSize=8;rounded=0;exitX=0.892;exitY=0.28;exitDx=0;exitDy=0;exitPerimeter=0;" edge="1" parent="8NwROwxm1LsMAn0bTt06-46">
          <mxGeometry relative="1" as="geometry">
            <mxPoint x="660.0799999999999" y="41" as="sourcePoint" />
            <mxPoint x="500" y="41" as="targetPoint" />
          </mxGeometry>
        </mxCell>
        <mxCell id="8NwROwxm1LsMAn0bTt06-54" value="error" style="html=1;verticalAlign=bottom;endArrow=open;dashed=1;endSize=8;rounded=0;exitX=0.5;exitY=0.786;exitDx=0;exitDy=0;exitPerimeter=0;" edge="1" parent="8NwROwxm1LsMAn0bTt06-46" source="8NwROwxm1LsMAn0bTt06-50" target="8NwROwxm1LsMAn0bTt06-51">
          <mxGeometry relative="1" as="geometry">
            <mxPoint x="460" y="68" as="sourcePoint" />
            <mxPoint x="380" y="68" as="targetPoint" />
          </mxGeometry>
        </mxCell>
        <mxCell id="8NwROwxm1LsMAn0bTt06-55" value="send message&amp;nbsp;&lt;br&gt;error" style="html=1;verticalAlign=bottom;endArrow=open;dashed=1;endSize=8;rounded=0;" edge="1" parent="8NwROwxm1LsMAn0bTt06-46" target="8NwROwxm1LsMAn0bTt06-52">
          <mxGeometry relative="1" as="geometry">
            <mxPoint x="280" y="88" as="sourcePoint" />
            <mxPoint x="200" y="88" as="targetPoint" />
          </mxGeometry>
        </mxCell>
        <mxCell id="8NwROwxm1LsMAn0bTt06-56" value="" style="shape=umlDestroy;whiteSpace=wrap;html=1;strokeWidth=2;" vertex="1" parent="8NwROwxm1LsMAn0bTt06-46">
          <mxGeometry x="115" y="78" width="30" height="30" as="geometry" />
        </mxCell>
        <mxCell id="8NwROwxm1LsMAn0bTt06-57" value="delete ok" style="html=1;verticalAlign=bottom;endArrow=open;dashed=1;endSize=8;rounded=0;" edge="1" parent="8NwROwxm1LsMAn0bTt06-46" target="8NwROwxm1LsMAn0bTt06-58">
          <mxGeometry relative="1" as="geometry">
            <mxPoint x="660" y="160" as="sourcePoint" />
            <mxPoint x="580" y="160" as="targetPoint" />
          </mxGeometry>
        </mxCell>
        <mxCell id="8NwROwxm1LsMAn0bTt06-58" value="" style="html=1;points=[];perimeter=orthogonalPerimeter;strokeWidth=2;" vertex="1" parent="8NwROwxm1LsMAn0bTt06-46">
          <mxGeometry x="485" y="160" width="10" height="40" as="geometry" />
        </mxCell>
        <mxCell id="8NwROwxm1LsMAn0bTt06-59" value="delete ok" style="html=1;verticalAlign=bottom;endArrow=open;dashed=1;endSize=8;rounded=0;exitX=0.5;exitY=1;exitDx=0;exitDy=0;exitPerimeter=0;" edge="1" parent="8NwROwxm1LsMAn0bTt06-46" source="8NwROwxm1LsMAn0bTt06-58" target="8NwROwxm1LsMAn0bTt06-60">
          <mxGeometry relative="1" as="geometry">
            <mxPoint x="460" y="200" as="sourcePoint" />
            <mxPoint x="380" y="200" as="targetPoint" />
          </mxGeometry>
        </mxCell>
        <mxCell id="8NwROwxm1LsMAn0bTt06-60" value="" style="html=1;points=[];perimeter=orthogonalPerimeter;strokeWidth=2;" vertex="1" parent="8NwROwxm1LsMAn0bTt06-46">
          <mxGeometry x="310" y="200" width="10" height="40" as="geometry" />
        </mxCell>
        <mxCell id="8NwROwxm1LsMAn0bTt06-61" value="" style="html=1;points=[];perimeter=orthogonalPerimeter;strokeWidth=2;" vertex="1" parent="8NwROwxm1LsMAn0bTt06-46">
          <mxGeometry x="145" y="220" width="10" height="30" as="geometry" />
        </mxCell>
        <mxCell id="8NwROwxm1LsMAn0bTt06-62" value="send email&amp;nbsp; &lt;br&gt;&amp;nbsp;account deleted" style="html=1;verticalAlign=bottom;endArrow=open;dashed=1;endSize=8;rounded=0;" edge="1" parent="8NwROwxm1LsMAn0bTt06-46" target="8NwROwxm1LsMAn0bTt06-61">
          <mxGeometry relative="1" as="geometry">
            <mxPoint x="280" y="220" as="sourcePoint" />
            <mxPoint x="200" y="220" as="targetPoint" />
          </mxGeometry>
        </mxCell>
        <mxCell id="8NwROwxm1LsMAn0bTt06-63" value="" style="html=1;points=[];perimeter=orthogonalPerimeter;strokeWidth=2;" vertex="1" parent="8NwROwxm1LsMAn0bTt06-46">
          <mxGeometry x="310" y="270" width="10" height="40" as="geometry" />
        </mxCell>
        <mxCell id="8NwROwxm1LsMAn0bTt06-64" value="&amp;nbsp;in Local storage&amp;nbsp;&lt;br&gt;delete JWT&lt;br&gt;redirect&amp;nbsp; home&amp;nbsp;" style="edgeStyle=orthogonalEdgeStyle;html=1;align=left;spacingLeft=2;endArrow=block;rounded=0;entryX=1;entryY=0;" edge="1" parent="8NwROwxm1LsMAn0bTt06-46">
          <mxGeometry relative="1" as="geometry">
            <mxPoint x="324" y="220" as="sourcePoint" />
            <Array as="points">
              <mxPoint x="319" y="220" />
              <mxPoint x="319" y="230" />
              <mxPoint x="354" y="230" />
              <mxPoint x="354" y="270" />
            </Array>
            <mxPoint x="324" y="270" as="targetPoint" />
          </mxGeometry>
        </mxCell>
        <mxCell id="8NwROwxm1LsMAn0bTt06-29" value="alt" style="shape=umlFrame;tabWidth=110;tabHeight=30;tabPosition=left;html=1;boundedLbl=1;labelInHeader=1;width=140;height=30;fillColor=#fa6800;fontColor=#000000;strokeColor=#C73500;container=0;" vertex="1" parent="1">
          <mxGeometry x="-55" y="425" width="770" height="140" as="geometry" />
        </mxCell>
      </root>
    </mxGraphModel>
  </diagram>
</mxfile>
